<svg width="24" height="24" viewBox="0 0 32 32" xmlns="http://www.w3.org/2000/svg">
    <circle cx="16" cy="16" r="14" fill="#ffffff" />
    <path d="M30.37 7.986c-3.313-8.368-14.331-7.038-24.718-4.352v0c-0.217 2.126 0.139 4.3 0.875 6.506 4.777-5.401 18.035-7.344 23.842-2.154zM4.096 3.833v0l-2.355 0.597c0.352 4.869 1.78 8.261 3.771 10.887-1.032 0.645-2.539 1.227-4.291 1.674 0.353 0.412 0.888 1.009 1.904 1.155 1.55-0.27 2.49-0.935 3.353-1.659 4.757 5.314 11.871 7.423 15.796 13.992l3.083-0.008c-7.201-13.292-20.303-7.709-21.262-26.638z" fill="#000000" transform="scale(0.7) translate(5, 9)"/>
</svg>
