<svg fill="#000000" height="24" width="24" version="1.1" id="Capa_1" xmlns="http://www.w3.org/2000/svg" xmlns:xlink="http://www.w3.org/1999/xlink" viewBox="0 0 470.001 470.001" xml:space="preserve">
    <g id="SVGRepo_bgCarrier" stroke-width="0"></g>
    <g id="SVGRepo_tracerCarrier" stroke-linecap="round" stroke-linejoin="round"></g>
    <circle cx="210" cy="210" r="210" fill="#ffffff" />-->
    <g id="SVGRepo_iconCarrier"> <g>
        <path style="fill:#fffffff;" d="M214.257,187.552H124.78c-1.381,0-2.5-1.119-2.5-2.5V173.63c0-1.381,1.119-2.5,2.5-2.5h89.478 c1.381,0,2.5,1.119,2.5,2.5v11.422C216.757,186.433,215.638,187.552,214.257,187.552z M127.28,182.552h84.478v-6.422H127.28V182.552 z M7.148,144.969c-1.06,0-2.043-0.679-2.381-1.742l-4.648-14.605c-0.419-1.316,0.308-2.722,1.624-3.141L77.091,101.5 c0.63-0.201,1.317-0.143,1.906,0.162c0.589,0.305,1.033,0.831,1.233,1.462l0.491,1.542l37.688-11.994l-0.947-2.975 c-0.201-0.632-0.144-1.318,0.161-1.907c0.305-0.589,0.831-1.033,1.463-1.234l6.622-2.107l-1.225-3.849 c-0.201-0.632-0.144-1.318,0.161-1.907s0.831-1.033,1.463-1.234l3.979-1.266l-2.033-6.388l-0.293,0.093 c-0.627,0.2-1.277,0.301-1.932,0.301l0,0c-2.785,0-5.224-1.784-6.068-4.438l-2.399-7.542c-2.104-6.612,1.563-13.703,8.175-15.807 L165.163,29.8c1.241-0.395,2.525-0.595,3.818-0.595c5.501,0,10.318,3.524,11.987,8.77l2.4,7.542 c1.064,3.347-0.792,6.936-4.137,8.001l-0.293,0.093l2.033,6.388l3.979-1.267c0.633-0.2,1.318-0.143,1.907,0.162 c0.589,0.305,1.033,0.831,1.233,1.462l9.527,29.935c0.201,0.632,0.144,1.318-0.161,1.907s-0.831,1.033-1.463,1.234l-3.979,1.267 l2.032,6.388l0.292-0.093c0.628-0.2,1.278-0.301,1.933-0.301c2.784,0,5.223,1.783,6.068,4.438l2.4,7.542 c1.02,3.203,0.73,6.611-0.813,9.597c-1.544,2.986-4.158,5.191-7.361,6.21l-39.626,12.611c-1.241,0.395-2.525,0.595-3.817,0.595 c-0.001,0-0.001,0-0.001,0c-5.501,0-10.319-3.524-11.988-8.77l-2.4-7.542c-0.516-1.62-0.369-3.345,0.412-4.856 s2.104-2.627,3.726-3.144l0.292-0.093l-2.032-6.388l-3.979,1.267c-1.312,0.416-2.722-0.308-3.14-1.624l-1.226-3.849l-6.622,2.107 c-1.313,0.417-2.722-0.308-3.14-1.624l-0.947-2.976l-37.688,11.994l0.49,1.542c0.419,1.316-0.308,2.722-1.624,3.141l-75.349,23.98 C7.655,144.931,7.4,144.969,7.148,144.969z M5.641,129.487l3.132,9.841l70.584-22.464l-3.132-9.841L5.641,129.487z M170.122,113.947 l-25.735,8.19c-0.348,0.111-0.632,0.351-0.8,0.675s-0.199,0.695-0.089,1.043l2.4,7.543c1.006,3.161,3.909,5.286,7.224,5.286 c0,0,0,0,0.001,0c0.776,0,1.551-0.121,2.302-0.36l39.626-12.611c1.93-0.614,3.505-1.943,4.436-3.743s1.104-3.853,0.491-5.784 l-2.4-7.542c-0.226-0.704-0.998-1.119-1.721-0.889L170.122,113.947z M145.896,109.376l2.032,6.387l41.355-13.161l-2.032-6.388 L145.896,109.376z M82.239,109.431l0.634,1.992l37.688-11.994l-0.634-1.992L82.239,109.431z M134.519,95.642l3.499,10.994 l54.078-17.211l-8.011-25.17l-54.078,17.211l1.223,3.842c0.001,0.002,0.002,0.004,0.002,0.007L134.519,95.642z M122.986,90.562 l4.045,12.708l4.239-1.349l-4.044-12.708L122.986,90.562z M132.819,68.289l2.033,6.388l41.355-13.162l-2.033-6.388L132.819,68.289z M168.981,34.205c-0.777,0-1.552,0.121-2.303,0.36l-39.626,12.611c-3.984,1.268-6.194,5.542-4.927,9.526l2.4,7.542 c0.224,0.705,1,1.119,1.719,0.889l51.471-16.38c0.719-0.229,1.118-1.001,0.889-1.72l-2.399-7.542 C175.198,36.329,172.295,34.205,168.981,34.205z" transform="translate(20,30) scale(1.6)"></path>
    </g>
    </g>
</svg>
