<svg width="24" height="24" viewBox="0 0 24 24" xmlns="http://www.w3.org/2000/svg">
    <circle cx="12" cy="12" r="10" fill="#ffffff" />
    <g transform="translate(3.5,3.5) scale(0.7)">
        <svg fill="#000000" viewBox="0 0 32 32" version="1.1" xmlns="http://www.w3.org/2000/svg"><g id="SVGRepo_bgCarrier" stroke-width="0"></g><g id="SVGRepo_tracerCarrier" stroke-linecap="round" stroke-linejoin="round"></g><g id="SVGRepo_iconCarrier"> <title>noose</title> <path d="M18.884 13.184c0.484-0.037 0.866-0.44 0.866-0.934v-5.625c0-0.518-0.42-0.937-0.937-0.937h-0.937v-3.751c0-0.518-0.42-0.937-0.937-0.937h-1.875c-0.518 0-0.937 0.42-0.937 0.937v3.751h-0.938c-0.518 0-0.937 0.42-0.937 0.937v5.625c0 0.494 0.382 0.897 0.866 0.934-3.217 5.633-6.491 7.233-6.491 9.379 0 5.625 4.552 8.438 9.375 8.438s9.375-2.813 9.375-8.438c0-2.145-3.273-3.745-6.491-9.379zM16 28.188c-2.815 0-5.625-2.813-5.625-5.625 0-0.938 4.688-5.625 5.625-8.438 0.937 2.813 5.625 7.5 5.625 8.438 0 2.813-2.815 5.625-5.625 5.625z"></path> </g></svg>    </g>
</svg>


