<svg width="24" height="24" viewBox="0 0 24 24" xmlns="http://www.w3.org/2000/svg">
    <circle cx="12" cy="12" r="10" fill="#ffffff" />
    <g transform="translate(3.5,3.5) scale(.7)">
        <svg version="1.1" id="_x32_" xmlns="http://www.w3.org/2000/svg" xmlns:xlink="http://www.w3.org/1999/xlink" viewBox="0 0 512 512" xml:space="preserve" fill="#000000"><g id="SVGRepo_bgCarrier" stroke-width="0"></g><g id="SVGRepo_tracerCarrier" stroke-linecap="round" stroke-linejoin="round"></g><g id="SVGRepo_iconCarrier"> <style type="text/css">  .st0{fill:#000000;}  </style> <g> <path class="st0" d="M483.141,175.339c-12.469-9.984-49.922,19.984-49.922,19.984c-9.969-47.438-37.422-89.875-37.422-89.875 s5.063-4.375,8.656-39.172c5.813-56-40.563-69.531-38.609-65.656c15.453,27.031,0,64.891-44.938,64.891H256h-64.906 c-44.906,0-60.375-37.859-44.906-64.891c1.922-3.875-44.438,9.656-38.641,65.656c3.609,34.797,8.672,39.172,8.672,39.172 s-27.453,42.438-37.438,89.875c0,0-37.453-29.969-49.922-19.984c-12.484,9.984,4.984,69.891,24.969,104.828 c19.969,34.953,57.406,49.531,57.406,57.422c0,27.453,22.469,72.391,54.906,94.844c32.453,22.469,71.797,48.578,78.859,59.906 c7.578,12.172,11,19.656,11,19.656s3.438-7.484,11.016-19.656c7.047-11.328,46.391-37.438,78.859-59.906 c32.438-22.453,54.906-67.391,54.906-94.844c0-7.891,37.453-22.469,57.406-57.422C478.156,245.23,495.625,185.324,483.141,175.339z M373.219,328.652c-9.313,29.109-24.094,56.266-47.328,68.844c-45.938,24.875-63.969,2.813-69.891-8.844 c-5.922,11.656-23.953,33.719-69.891,8.844c-23.219-12.578-38.016-39.734-47.328-68.844C68,301.214,42.578,208.98,49.125,201.73 c7.969-8.828,64.531,54.125,76.828,68.984c-2.203-20.875-2.109-41.797-1.297-45.031c2.5-9.969,18.891-24.688,18.891-24.688 s-2.375-53.109,35.078-63.094c30.141-8.047,60.25,19.484,77.375,38.344c17.125-18.859,47.25-46.391,77.375-38.344 c37.453,9.984,35.094,63.094,35.094,63.094s16.375,14.719,18.891,24.688c0.813,3.234,0.906,24.156-1.313,45.031 c12.313-14.859,68.875-77.813,76.844-68.984C469.422,208.98,444.016,301.214,373.219,328.652z"></path> </g> </g></svg>    </g>
</svg>

