<svg width="24" height="24" viewBox="0 0 24 24" xmlns="http://www.w3.org/2000/svg">
    <circle cx="12" cy="12" r="10" fill="#ffffff"/>
    <g transform="translate(0,0) scale(0.06)">

        <svg version="1.0" xmlns="http://www.w3.org/2000/svg"
             width="300.000000pt" height="300.000000pt" viewBox="0 0 300.000000 300.000000"
             preserveAspectRatio="xMidYMid meet">

            <g transform="translate(0.000000,300.000000) scale(0.050000,-0.050000)"
               fill="#000000" stroke="none">
                <path d="M2850 4930 c-176 -95 -259 -301 -186 -461 21 -46 19 -57 -15 -80
-232 -157 -369 -377 -369 -592 l0 -77 -718 -5 -719 -5 198 -260 c218 -286 204
-268 852 -1110 449 -583 732 -955 973 -1274 68 -91 129 -165 134 -165 6 0 66
74 134 165 241 319 524 691 973 1274 648 842 634 824 852 1110 l198 260 -719
5 -718 5 0 77 c0 215 -137 435 -369 592 -34 23 -36 34 -15 80 126 276 -220
604 -486 461z m251 -164 c71 -42 107 -124 89 -204 -17 -81 -29 -86 -190 -86
-161 0 -173 5 -190 86 -37 167 142 292 291 204z m163 -521 c270 -151 367 -467
228 -741 -203 -400 -781 -400 -984 0 -248 488 282 1008 756 741z m-842 -915
c87 -126 267 -240 443 -279 l55 -12 0 -239 0 -240 -210 0 -210 0 0 -80 0 -80
210 0 210 0 0 -420 c0 -409 -7 -458 -52 -385 -13 19 -227 301 -476 625 -249
325 -500 651 -557 727 -58 75 -157 203 -220 284 -63 81 -115 153 -115 158 0 6
197 11 437 11 l438 0 47 -70z m2078 58 c0 -7 -52 -78 -115 -159 -63 -80 -162
-207 -220 -282 -57 -76 -308 -402 -557 -727 -249 -324 -463 -606 -476 -625
-45 -73 -52 -24 -52 385 l0 420 210 0 210 0 0 80 0 80 -210 0 -210 0 0 240 0
239 55 12 c176 39 356 153 443 279 l47 70 438 0 c240 0 437 -6 437 -12z"/>
                <path d="M2880 4108 c-391 -170 -269 -749 153 -724 159 10 257 73 335 216 50
92 53 104 20 91 -280 -118 -510 97 -389 364 l39 85 -44 -1 c-24 0 -75 -14
-114 -31z m38 -425 c25 -35 87 -85 139 -112 l93 -47 -56 -15 c-220 -56 -421
186 -304 365 l36 54 23 -90 c13 -50 43 -119 69 -155z"/>
            </g>
        </svg>
    </g>
</svg>
